<svg width="1200" height="630" viewBox="0 0 1200 630" xmlns="http://www.w3.org/2000/svg">
  <title>FamHop — Brand-forward share image</title>
  <defs>
    <linearGradient id="bg" x1="0%" y1="0%" x2="100%" y2="100%">
      <stop offset="0%" stop-color="#FFF6EE"/>
      <stop offset="100%" stop-color="#FFE2D2"/>
    </linearGradient>
  </defs>
  <rect width="1200" height="630" fill="url(#bg)"/>

  <g fill="#FF6B5B" opacity="0.08">
    <circle cx="80" cy="120" r="9"/>
    <circle cx="1100" cy="80" r="14"/>
    <circle cx="1140" cy="500" r="11"/>
    <circle cx="120" cy="540" r="9"/>
    <circle cx="60" cy="320" r="6"/>
    <circle cx="1160" cy="300" r="7"/>
  </g>

  <path d="M 280 230 Q 420 70 560 230 Q 700 70 840 230 Q 980 70 1120 230" stroke="#FF6B5B" stroke-width="4" stroke-dasharray="6 12" stroke-linecap="round" fill="none" opacity="0.6"/>

  <circle cx="280" cy="230" r="11" fill="#FF6B5B"/>
  <circle cx="560" cy="230" r="11" fill="#FF6B5B"/>
  <circle cx="840" cy="230" r="11" fill="#FF6B5B"/>
  <circle cx="1120" cy="230" r="11" fill="#FF6B5B"/>

  <circle cx="350" cy="138" r="22" fill="#FF6B5B"/>
  <circle cx="343" cy="131" r="6" fill="#FFFFFF" opacity="0.5"/>

  <text x="600" y="400" text-anchor="middle" font-family="Avenir Next, Helvetica Neue, sans-serif" font-size="170" font-weight="900" fill="#1F2937" letter-spacing="-7">famhop</text>

  <text x="600" y="470" text-anchor="middle" font-family="Avenir Next, Helvetica Neue, sans-serif" font-size="30" font-weight="500" fill="#6B7280" letter-spacing="0.5">Plan a great day with the kids, in seconds.</text>

  <text x="600" y="565" text-anchor="middle" font-family="Avenir Next, Helvetica Neue, sans-serif" font-size="22" font-weight="800" fill="#FF6B5B" letter-spacing="6">FAMHOP.COM</text>
</svg>
