<svg width="1200" height="630" viewBox="0 0 1200 630" xmlns="http://www.w3.org/2000/svg">
  <title>FamHop — Dark mode share image</title>
  <defs>
    <radialGradient id="bg3" cx="50%" cy="40%" r="80%">
      <stop offset="0%" stop-color="#163029"/>
      <stop offset="100%" stop-color="#0A1714"/>
    </radialGradient>
  </defs>
  <rect width="1200" height="630" fill="url(#bg3)"/>

  <g fill="#7DD3A6" opacity="0.1">
    <circle cx="100" cy="100" r="3"/>
    <circle cx="1100" cy="120" r="4"/>
    <circle cx="60" cy="510" r="3"/>
    <circle cx="1140" cy="540" r="3"/>
    <circle cx="180" cy="280" r="2"/>
    <circle cx="1040" cy="380" r="2"/>
  </g>

  <line x1="200" y1="290" x2="1000" y2="290" stroke="#7DD3A6" stroke-width="2" stroke-dasharray="2 8" stroke-linecap="round" opacity="0.25"/>

  <path d="M 280 290 Q 410 110 540 290 Q 670 110 800 290 Q 930 110 1060 290" stroke="#7DD3A6" stroke-width="3" stroke-dasharray="4 8" stroke-linecap="round" fill="none" opacity="0.55"/>

  <circle cx="280" cy="290" r="14" fill="#7DD3A6" opacity="0.7"/>
  <circle cx="540" cy="290" r="14" fill="#7DD3A6" opacity="0.7"/>
  <circle cx="800" cy="290" r="14" fill="#7DD3A6" opacity="0.7"/>
  <circle cx="1060" cy="290" r="14" fill="#7DD3A6" opacity="0.7"/>

  <circle cx="410" cy="195" r="22" fill="#7DD3A6"/>
  <circle cx="404" cy="189" r="6" fill="#FFFFFF" opacity="0.45"/>

  <text x="600" y="430" text-anchor="middle" font-family="Avenir Next, Helvetica Neue, sans-serif" font-size="160" font-weight="900" fill="#FFFFFF" letter-spacing="-6">famhop</text>

  <text x="600" y="495" text-anchor="middle" font-family="Avenir Next, Helvetica Neue, sans-serif" font-size="28" font-weight="500" fill="#A8E6C2" letter-spacing="0.5">Family outings, planned in one tap.</text>

  <text x="600" y="580" text-anchor="middle" font-family="Avenir Next, Helvetica Neue, sans-serif" font-size="20" font-weight="800" fill="#7DD3A6" letter-spacing="6">FAMHOP.COM</text>
</svg>
